<svg width="19" height="15" viewBox="0 0 19 15" fill="none" xmlns="http://www.w3.org/2000/svg">
<path d="M11.4135 8.47826H19V13.0435C19 14.1196 18.0839 15 16.9643 15H2.03591C0.916289 15 0.000217125 14.1196 0.000217125 13.0435V8.47826H7.58667C7.86487 9.23478 8.61808 9.78261 9.50022 9.78261C10.3823 9.78261 11.1353 9.23478 11.4135 8.47826ZM19 4.56522V7.17391H11.4135C11.1353 6.41739 10.3821 5.86957 9.5 5.86957C8.61787 5.86957 7.86467 6.41739 7.58645 7.17391H0V4.56522C0 3.48914 0.916072 2.6087 2.03569 2.6087H5.42851V1.95652C5.42851 0.880445 6.34458 0 7.4642 0H11.5356C12.6552 0 13.5713 0.880445 13.5713 1.95652V2.6087H16.9641C18.0837 2.6087 19 3.48914 19 4.56522ZM6.78585 2.6087H12.2144V1.95652C12.2144 1.59782 11.909 1.30435 11.5358 1.30435H7.46442C7.0912 1.30435 6.78585 1.59782 6.78585 1.95652V2.6087ZM9.50011 7.17391C9.12689 7.17391 8.82154 7.46738 8.82154 7.82609C8.82154 8.18479 9.12689 8.47826 9.50011 8.47826C9.87333 8.47826 10.1787 8.18479 10.1787 7.82609C10.1787 7.46738 9.87333 7.17391 9.50011 7.17391Z" fill="#FAFAFA"/>
</svg>
