<svg width="16" height="16" viewBox="0 0 16 16" fill="none" xmlns="http://www.w3.org/2000/svg">
<path d="M12.0624 13.1352V14.5143C12.0624 15.3371 11.3766 16 10.5384 16H1.52399C0.685796 16 0 15.3295 0 14.5143V1.48571C0 0.662857 0.685796 0 1.52399 0H10.5384C11.3766 0 12.0624 0.670476 12.0624 1.48571V2.86476C12.0624 3.28381 11.7195 3.62667 11.3004 3.62667C10.8813 3.62667 10.5384 3.28381 10.5384 2.86476V1.48571L1.52399 1.52381V14.5143L10.5308 14.4762V13.1352C10.5308 12.7162 10.8737 12.3733 11.2928 12.3733C11.7119 12.3733 12.0548 12.7162 12.0548 13.1352H12.0624ZM15.8114 7.49714L13.5559 4.91429C13.2816 4.59429 12.8015 4.56381 12.4815 4.8381C12.1614 5.11238 12.131 5.59238 12.4053 5.91238L13.5559 7.2381H7.61233C7.19324 7.2381 6.85034 7.58095 6.85034 8C6.85034 8.41905 7.19324 8.7619 7.61233 8.7619H13.5559L12.4053 10.0876C12.131 10.4076 12.1614 10.8876 12.4815 11.1619C12.6263 11.2914 12.8015 11.3524 12.9844 11.3524C13.1978 11.3524 13.4111 11.261 13.5559 11.0933L15.8114 8.51048C16.0629 8.22095 16.0629 7.79429 15.8114 7.51238V7.49714Z" fill="#FAFAFA"/>
</svg>
