<svg width="19" height="18" viewBox="0 0 19 18" fill="none" xmlns="http://www.w3.org/2000/svg">
<path fill-rule="evenodd" clip-rule="evenodd" d="M5.82962 2.6141C7.60855 2.6141 9.0505 4.07958 9.0505 5.88751C9.0505 7.69545 7.60855 9.16092 5.82962 9.16092C4.0507 9.16092 2.60874 7.69545 2.60874 5.88751C2.60874 4.07958 4.0507 2.6141 5.82962 2.6141ZM13.1704 0C14.9493 0 16.3913 1.46579 16.3913 3.27372C16.3913 5.08166 14.9493 6.54713 13.1704 6.54713C11.3915 6.54713 9.9495 5.08166 9.9495 3.27372C9.9495 1.46579 11.3915 0 13.1704 0ZM12.7372 15.3859H19V13.618C19 10.3592 16.3768 7.69295 13.1704 7.69295C11.3905 7.69295 9.79085 8.51474 8.71938 9.80304C10.8737 10.8101 12.4433 12.9049 12.7372 15.3859ZM0 18H11.6592V16.2317C11.6592 12.973 9.03605 10.3071 5.82962 10.3071C2.62319 10.3071 0 12.973 0 16.2317V18Z" fill="#FAFAFA"/>
</svg>
